# xmcd
#
# Track frame offsets: 
#        150
#        14562
#        35656
#        57059
#        79029
#        96040
#        118699
#        142837
#        176899
#        197228
#        218007
#        233922
#        268219
#        287547
#        301937
#        341159
#
# Disc length: 4791 seconds
#
# Revision: 0
# Processed by: cddbd v1.5.2PL0 Copyright (c) Steve Scherf et al.
# Submitted via: ExactAudioCopy v1.1
#
DISCID=e812b510
DTITLE=Various Artist - Akella Presents - vol.105 - Rockin' Blues  CD
DTITLE=2
DYEAR=2017
DGENRE=Blues
TTITLE0=Bihlman Bros. - Hells Kitchen
TTITLE1=Dion - Ride's Blues (for Robert Johnson)
TTITLE2=Marc Ford and The Neptune Blues Club - Arkansas Gas Card
TTITLE3=John Mayall - Nature's Disappearing
TTITLE4=Thorbjorn Risager and The Black Tornado - Train
TTITLE5=Henrik Freischlader - Jumping At Shadows
TTITLE6=Tony Sarno - Get Out The Back Door
TTITLE7=Samuel Eddy - She Done Me Wrong
TTITLE8=Dave Hunt - Rehab
TTITLE9=Main Street Blues - Breaking Up Someone's Home
TTITLE10=Rockin' Blues - Until I'ts Gone
TTITLE11=Albert Castiglia - Closing Time
TTITLE12=Howard 'Guitar' Luedtke and Blue Max - Tough Times
TTITLE13=Marcus Malone - Feelin' Bad Blues
TTITLE14=TW Henderson and the Blues of Cain - Black and White
TTITLE15=Guido and Maurizio De Angelis - Goodbye My Friend
EXTD=
EXTT0=
EXTT1=
EXTT2=
EXTT3=
EXTT4=
EXTT5=
EXTT6=
EXTT7=
EXTT8=
EXTT9=
EXTT10=
EXTT11=
EXTT12=
EXTT13=
EXTT14=
EXTT15=
PLAYORDER=
